<?xml version="1.0" encoding="utf-8"?>
<!-- Generator: Adobe Illustrator 15.0.0, SVG Export Plug-In . SVG Version: 6.00 Build 0)  -->
<!DOCTYPE svg PUBLIC "-//W3C//DTD SVG 1.1//EN" "http://www.w3.org/Graphics/SVG/1.1/DTD/svg11.dtd">
<svg version="1.1" id="Слой_1" xmlns="http://www.w3.org/2000/svg" xmlns:xlink="http://www.w3.org/1999/xlink" x="0px" y="0px"
	 width="22.88px" height="16.599px" viewBox="0 0 22.88 16.599" enable-background="new 0 0 22.88 16.599" xml:space="preserve" shape-rendering="geometricPrecision">
<path fill="#FFFFFF" d="M20.522,0H2.358C1.058,0,0,1.058,0,2.357V14.24c0,1.301,1.057,2.358,2.358,2.358h18.164
	c1.3,0,2.357-1.058,2.357-2.358V2.357C22.88,1.058,21.822,0,20.522,0z M11.107,11.479c0.095,0.085,0.214,0.127,0.333,0.127
	s0.238-0.042,0.333-0.127l2.814-2.51l6.189,5.521c-0.064,0.066-0.154,0.108-0.255,0.108H2.358c-0.101,0-0.191-0.043-0.256-0.109
	l6.19-5.521L11.107,11.479z M20.88,13.24l-5.541-4.941l5.541-4.94V13.24z M2.358,2h18.164c0.101,0,0.19,0.042,0.255,0.109
	l-9.337,8.327L2.103,2.109C2.168,2.042,2.258,2,2.358,2z M7.542,8.299L2,13.24V3.359L7.542,8.299z"/>
</svg>
