<?xml version="1.0" encoding="UTF-8"?>
<!DOCTYPE svg PUBLIC "-//W3C//DTD SVG 1.1//EN" "http://www.w3.org/Graphics/SVG/1.1/DTD/svg11.dtd">
<svg xmlns="http://www.w3.org/2000/svg" version="1.1" width="174px" height="150px" style="shape-rendering:geometricPrecision; text-rendering:geometricPrecision; image-rendering:optimizeQuality; fill-rule:evenodd; clip-rule:evenodd" xmlns:xlink="http://www.w3.org/1999/xlink">
<g><path style="opacity:0.988" fill="#d2cfce" d="M 68.5,7.5 C 67.4863,8.67373 66.153,9.3404 64.5,9.5C 65.287,7.89578 66.6203,7.22911 68.5,7.5 Z"/></g>
<g><path style="opacity:0.842" fill="#111111" d="M 88.5,10.5 C 88.4142,11.4959 88.7476,12.3292 89.5,13C 88.9056,13.4643 88.2389,13.631 87.5,13.5C 83.6896,10.8393 79.3563,9.8393 74.5,10.5C 70.4339,12.3694 66.4339,14.5361 62.5,17C 60.7866,18.3782 59.4533,20.0448 58.5,22C 57.4232,22.4696 56.4232,22.3029 55.5,21.5C 56.4594,18.2478 57.9594,15.2478 60,12.5C 61.129,10.8588 62.629,9.85883 64.5,9.5C 66.153,9.3404 67.4863,8.67373 68.5,7.5C 73.1065,5.8411 77.7732,5.50776 82.5,6.5C 81.9747,7.19238 81.3081,7.69238 80.5,8C 83.154,8.9406 85.8206,9.77394 88.5,10.5 Z"/></g>
<g><path style="opacity:1" fill="#aca9a9" d="M 74.5,10.5 C 68.6918,10.8208 63.8585,13.1541 60,17.5C 59.8374,15.6133 60.6707,14.1133 62.5,13C 66.4628,10.1702 70.7961,8.83687 75.5,9C 74.944,9.38258 74.6107,9.88258 74.5,10.5 Z"/></g>
<g><path style="opacity:1" fill="#bbb9b5" d="M 56.5,25.5 C 54.8249,27.456 55.1582,28.7893 57.5,29.5C 56.3991,30.5983 55.0657,30.765 53.5,30C 51.981,28.6487 50.6477,27.1487 49.5,25.5C 48.8182,26.2427 48.1515,26.9094 47.5,27.5C 45.7855,22.2254 46.2855,17.2254 49,12.5C 49.7469,17.9725 52.2469,22.3059 56.5,25.5 Z"/></g>
<g><path style="opacity:0.528" fill="#1e1d1d" d="M 54.5,21.5 C 55.2299,22.7124 56.2299,23.7124 57.5,24.5C 57.3764,25.1067 57.0431,25.44 56.5,25.5C 52.2469,22.3059 49.7469,17.9725 49,12.5C 46.2855,17.2254 45.7855,22.2254 47.5,27.5C 48.1408,28.4822 48.8075,29.4822 49.5,30.5C 49,30.8333 48.5,31.1667 48,31.5C 43.6031,30.6919 39.4364,29.5253 35.5,28C 36.8168,29.6591 38.4835,30.8257 40.5,31.5C 41.8333,33.1667 41.8333,34.8333 40.5,36.5C 36.25,38.2056 32.4167,40.5389 29,43.5C 26.6511,48.1978 24.3178,52.8644 22,57.5C 21.6667,57.1667 21.3333,56.8333 21,56.5C 18.4176,62.7237 14.251,67.3903 8.5,70.5C 8.5,69.8333 8.16667,69.5 7.5,69.5C 8.43634,68.0256 9.76967,67.0256 11.5,66.5C 13.9971,65.8707 15.3304,64.204 15.5,61.5C 16.9063,61.0269 17.573,60.0269 17.5,58.5C 20.1819,53.7981 22.8486,49.1314 25.5,44.5C 26.9063,44.0269 27.573,43.0269 27.5,41.5C 30.9637,38.2615 34.9637,35.7615 39.5,34C 36.0354,31.5374 32.8688,28.7041 30,25.5C 29.2025,23.7412 29.3691,22.0745 30.5,20.5C 34.4426,24.3326 39.1093,26.9992 44.5,28.5C 43.3894,21.0484 44.8894,14.0484 49,7.5C 52.8972,3.62394 57.3972,1.62394 62.5,1.5C 59.2444,3.71129 56.0777,6.04462 53,8.5C 51.4287,12.9969 51.9287,17.3303 54.5,21.5 Z"/></g>
<g><path style="opacity:1" fill="#868788" d="M 113.5,7.5 C 110.696,6.36216 107.696,6.19549 104.5,7C 99.8333,9 95.1667,11 90.5,13C 91.626,16.7436 91.7927,20.577 91,24.5C 90.3333,25.1667 89.6667,25.8333 89,26.5C 88.3007,21.1282 85.3007,18.7948 80,19.5C 73.8455,18.8606 69.0122,20.8606 65.5,25.5C 64.4324,24.5655 63.099,24.2322 61.5,24.5C 61.7438,21.7374 63.0771,19.5707 65.5,18C 69.5341,17.4326 73.3675,16.2659 77,14.5C 80.4726,13.8371 83.9726,13.5037 87.5,13.5C 88.2389,13.631 88.9056,13.4643 89.5,13C 88.7476,12.3292 88.4142,11.4959 88.5,10.5C 88.8333,10.5 89.1667,10.5 89.5,10.5C 89.56,11.0431 89.8933,11.3764 90.5,11.5C 93.6728,9.41282 97.0061,7.57948 100.5,6C 107.833,5.33333 115.167,5.33333 122.5,6C 119.607,7.14877 116.607,7.64877 113.5,7.5 Z"/></g>
<g><path style="opacity:1" fill="#979795" d="M 110.5,8.5 C 107.402,10.8916 104.069,13.0583 100.5,15C 98.4407,16.1855 98.274,17.3521 100,18.5C 103.183,19.6985 106.35,20.8652 109.5,22C 117.186,22.3726 124.852,22.3726 132.5,22C 128.121,25.5119 123.121,27.3452 117.5,27.5C 110.743,26.0566 103.909,24.3899 97,22.5C 96.2035,19.2791 96.7035,16.2791 98.5,13.5C 102.178,11.0521 106.178,9.38542 110.5,8.5 Z"/></g>
<g><path style="opacity:1" fill="#c7c6c3" d="M 113.5,7.5 C 112.391,7.55688 111.391,7.89022 110.5,8.5C 106.178,9.38542 102.178,11.0521 98.5,13.5C 96.7035,16.2791 96.2035,19.2791 97,22.5C 103.909,24.3899 110.743,26.0566 117.5,27.5C 116.662,27.8417 116.328,28.5084 116.5,29.5C 113.478,29.804 110.478,30.304 107.5,31C 108.056,31.3826 108.389,31.8826 108.5,32.5C 107.069,32.8807 106.236,33.8807 106,35.5C 105.667,35.1667 105.333,34.8333 105,34.5C 103.535,36.915 101.368,37.915 98.5,37.5C 97.8501,37.1961 97.1835,36.8627 96.5,36.5C 95.1502,37.9501 93.4835,38.6168 91.5,38.5C 87.9987,35.3365 83.9987,33.0031 79.5,31.5C 76.5285,31.5646 73.8618,30.7313 71.5,29C 68.1832,28.5017 64.8499,28.335 61.5,28.5C 61.1667,28.5 60.8333,28.5 60.5,28.5C 61.7682,26.953 63.4348,25.953 65.5,25.5C 69.0122,20.8606 73.8455,18.8606 80,19.5C 85.3007,18.7948 88.3007,21.1282 89,26.5C 89.6667,25.8333 90.3333,25.1667 91,24.5C 91.7927,20.577 91.626,16.7436 90.5,13C 95.1667,11 99.8333,9 104.5,7C 107.696,6.19549 110.696,6.36216 113.5,7.5 Z"/></g>
<g><path style="opacity:0.759" fill="#121111" d="M 173.5,58.5 C 173.5,59.8333 173.5,61.1667 173.5,62.5C 166.587,63.9171 159.587,64.7504 152.5,65C 156.484,73.6362 162.151,80.9696 169.5,87C 170.745,87.7914 172.078,88.2914 173.5,88.5C 173.5,90.1667 173.5,91.8333 173.5,93.5C 156.029,86.3628 143.029,74.3628 134.5,57.5C 135.077,56.2267 135.743,56.2267 136.5,57.5C 137.929,59.8926 139.263,62.2259 140.5,64.5C 144.039,69.0611 147.705,73.5611 151.5,78C 156.188,81.8306 161.188,84.8306 166.5,87C 163.561,84.3063 160.728,81.473 158,78.5C 154.542,73.2361 151.375,67.9027 148.5,62.5C 153.632,62.4044 158.965,62.2377 164.5,62C 167.043,61.8603 169.377,61.1937 171.5,60C 164.775,59.1361 158.109,57.9695 151.5,56.5C 149.5,54.8333 147.5,53.1667 145.5,51.5C 149.591,50.9149 153.591,49.9149 157.5,48.5C 149.123,45.4785 141.123,41.6451 133.5,37C 129.244,35.1927 124.911,33.6927 120.5,32.5C 119.205,31.5116 117.872,30.5116 116.5,29.5C 116.328,28.5084 116.662,27.8417 117.5,27.5C 123.121,27.3452 128.121,25.5119 132.5,22C 124.852,22.3726 117.186,22.3726 109.5,22C 106.35,20.8652 103.183,19.6985 100,18.5C 98.274,17.3521 98.4407,16.1855 100.5,15C 104.069,13.0583 107.402,10.8916 110.5,8.5C 111.391,7.89022 112.391,7.55688 113.5,7.5C 116.607,7.64877 119.607,7.14877 122.5,6C 115.167,5.33333 107.833,5.33333 100.5,6C 97.0061,7.57948 93.6728,9.41282 90.5,11.5C 89.8933,11.3764 89.56,11.0431 89.5,10.5C 92.475,7.33895 96.1417,5.17228 100.5,4C 108.5,3.33333 116.5,3.33333 124.5,4C 127.112,4.63949 129.446,5.80616 131.5,7.5C 130.975,8.19238 130.308,8.69238 129.5,9C 124.167,9.33333 118.833,9.66667 113.5,10C 109.5,12.3333 105.5,14.6667 101.5,17C 112.465,21.111 123.631,21.611 135,18.5C 135.833,18.8333 136.667,19.1667 137.5,19.5C 132.981,24.2583 127.648,27.7583 121.5,30C 127.5,32.3333 133.5,34.6667 139.5,37C 148.822,44.4945 159.489,47.6611 171.5,46.5C 169.584,48.3173 167.251,49.484 164.5,50C 160.071,50.6813 155.737,51.6813 151.5,53C 158.655,55.5519 165.989,57.3852 173.5,58.5 Z"/></g>
<g><path style="opacity:1" fill="#5d5f63" d="M 74.5,10.5 C 79.3563,9.8393 83.6896,10.8393 87.5,13.5C 83.9726,13.5037 80.4726,13.8371 77,14.5C 73.3675,16.2659 69.5341,17.4326 65.5,18C 63.0771,19.5707 61.7438,21.7374 61.5,24.5C 63.099,24.2322 64.4324,24.5655 65.5,25.5C 63.4348,25.953 61.7682,26.953 60.5,28.5C 59.1751,29.9526 58.3418,29.6192 58,27.5C 57.5357,28.0944 57.369,28.7611 57.5,29.5C 55.1582,28.7893 54.8249,27.456 56.5,25.5C 57.0431,25.44 57.3764,25.1067 57.5,24.5C 56.2299,23.7124 55.2299,22.7124 54.5,21.5C 54.8333,21.5 55.1667,21.5 55.5,21.5C 56.4232,22.3029 57.4232,22.4696 58.5,22C 59.4533,20.0448 60.7866,18.3782 62.5,17C 66.4339,14.5361 70.4339,12.3694 74.5,10.5 Z"/></g>
<g><path style="opacity:1" fill="#626367" d="M 61.5,28.5 C 64.8499,28.335 68.1832,28.5017 71.5,29C 73.8618,30.7313 76.5285,31.5646 79.5,31.5C 79.2089,32.6491 78.3756,33.3158 77,33.5C 75.5531,33.0548 74.2197,32.3881 73,31.5C 70.6248,33.1207 68.1248,34.454 65.5,35.5C 64.7611,35.631 64.0944,35.4643 63.5,35C 62.9152,33.6976 62.2485,32.531 61.5,31.5C 60.1667,30.5 60.1667,29.5 61.5,28.5 Z"/></g>
<g><path style="opacity:1" fill="#e9e5e4" d="M 116.5,29.5 C 117.872,30.5116 119.205,31.5116 120.5,32.5C 129.049,38.6097 138.383,43.4431 148.5,47C 147.207,47.49 145.873,47.6567 144.5,47.5C 144.433,48.9587 144.766,50.2921 145.5,51.5C 147.5,53.1667 149.5,54.8333 151.5,56.5C 151.918,57.2216 152.584,57.7216 153.5,58C 151.744,58.2022 150.078,58.7022 148.5,59.5C 147.347,60.6868 147.347,61.6868 148.5,62.5C 151.375,67.9027 154.542,73.2361 158,78.5C 160.728,81.473 163.561,84.3063 166.5,87C 161.188,84.8306 156.188,81.8306 151.5,78C 147.705,73.5611 144.039,69.0611 140.5,64.5C 142.241,62.6136 143.241,60.2803 143.5,57.5C 141.181,49.4588 135.848,44.2921 127.5,42C 122.29,36.7106 115.957,33.5439 108.5,32.5C 108.389,31.8826 108.056,31.3826 107.5,31C 110.478,30.304 113.478,29.804 116.5,29.5 Z"/></g>
<g><path style="opacity:1" fill="#9c9c9a" d="M 108.5,32.5 C 115.957,33.5439 122.29,36.7106 127.5,42C 135.848,44.2921 141.181,49.4588 143.5,57.5C 143.241,60.2803 142.241,62.6136 140.5,64.5C 139.263,62.2259 137.929,59.8926 136.5,57.5C 135.743,56.2267 135.077,56.2267 134.5,57.5C 129.458,52.2797 124.458,46.7797 119.5,41C 115.464,39.2086 111.631,37.042 108,34.5C 107.517,35.448 107.351,36.448 107.5,37.5C 106.448,37.3505 105.448,37.5172 104.5,38C 105.984,38.6622 107.317,39.4955 108.5,40.5C 108.988,42.8086 109.988,44.8086 111.5,46.5C 110.167,48.5 110.167,50.5 111.5,52.5C 110.833,53.5 110.167,54.5 109.5,55.5C 108.833,55.5 108.5,55.8333 108.5,56.5C 107.167,56.8333 105.833,57.1667 104.5,57.5C 104.932,56.2905 105.599,55.2905 106.5,54.5C 107.667,51.1201 107.167,47.7868 105,44.5C 104.722,45.4158 104.222,46.0825 103.5,46.5C 102.629,43.8877 101.963,41.221 101.5,38.5C 100.209,38.7373 99.209,38.404 98.5,37.5C 101.368,37.915 103.535,36.915 105,34.5C 105.333,34.8333 105.667,35.1667 106,35.5C 106.236,33.8807 107.069,32.8807 108.5,32.5 Z"/></g>
<g><path style="opacity:1" fill="#9a9a98" d="M 120.5,32.5 C 124.911,33.6927 129.244,35.1927 133.5,37C 141.123,41.6451 149.123,45.4785 157.5,48.5C 153.591,49.9149 149.591,50.9149 145.5,51.5C 144.766,50.2921 144.433,48.9587 144.5,47.5C 145.873,47.6567 147.207,47.49 148.5,47C 138.383,43.4431 129.049,38.6097 120.5,32.5 Z"/></g>
<g><path style="opacity:1" fill="#c2c0be" d="M 87.5,40.5 C 86.8333,40.5 86.1667,40.5 85.5,40.5C 83.6096,40.7035 82.1096,40.0368 81,38.5C 80.5172,39.448 80.3505,40.448 80.5,41.5C 79.1266,41.3433 77.7932,41.51 76.5,42C 79.028,43.0174 79.028,44.1841 76.5,45.5C 77.7064,48.5604 78.7064,51.5604 79.5,54.5C 79.2528,55.7133 78.5862,56.38 77.5,56.5C 77.3964,54.2972 76.7298,52.2972 75.5,50.5C 72.0875,47.2651 68.7542,43.7651 65.5,40C 66.6014,35.1063 69.268,34.273 73.5,37.5C 78.7183,35.3004 83.3849,36.3004 87.5,40.5 Z"/></g>
<g><path style="opacity:1" fill="#2e3239" d="M 98.5,37.5 C 99.209,38.404 100.209,38.7373 101.5,38.5C 101.963,41.221 102.629,43.8877 103.5,46.5C 97.7151,48.3172 92.0484,50.6505 86.5,53.5C 84.5489,50.4777 82.8823,47.311 81.5,44C 82.3471,42.2294 83.6805,41.0627 85.5,40.5C 86.1667,40.5 86.8333,40.5 87.5,40.5C 88.9952,40.0113 90.3285,39.3446 91.5,38.5C 93.4835,38.6168 95.1502,37.9501 96.5,36.5C 97.1835,36.8627 97.8501,37.1961 98.5,37.5 Z"/></g>
<g><path style="opacity:1" fill="#3c3f45" d="M 111.5,46.5 C 109.988,44.8086 108.988,42.8086 108.5,40.5C 108.897,39.475 109.563,39.3083 110.5,40C 112.977,41.6427 115.31,43.476 117.5,45.5C 115.867,47.739 113.867,48.0723 111.5,46.5 Z"/></g>
<g><path style="opacity:0.949" fill="#9c9998" d="M 27.5,41.5 C 27.573,43.0269 26.9063,44.0269 25.5,44.5C 25.427,42.9731 26.0937,41.9731 27.5,41.5 Z"/></g>
<g><path style="opacity:1" fill="#808183" d="M 79.5,31.5 C 83.9987,33.0031 87.9987,35.3365 91.5,38.5C 90.3285,39.3446 88.9952,40.0113 87.5,40.5C 83.3849,36.3004 78.7183,35.3004 73.5,37.5C 69.268,34.273 66.6014,35.1063 65.5,40C 68.7542,43.7651 72.0875,47.2651 75.5,50.5C 74.4664,51.6871 73.133,52.5204 71.5,53C 72.6721,53.4186 73.6721,54.0853 74.5,55C 71.208,55.9357 68.208,55.4357 65.5,53.5C 65.1667,53.8333 64.8333,54.1667 64.5,54.5C 65.2427,55.1818 65.9094,55.8485 66.5,56.5C 65.0379,57.4709 63.7046,57.1376 62.5,55.5C 60.3798,49.6376 58.3798,43.8043 56.5,38C 58.7768,37.0269 60.9435,36.8603 63,37.5C 64.301,37.3613 65.1344,36.6946 65.5,35.5C 68.1248,34.454 70.6248,33.1207 73,31.5C 74.2197,32.3881 75.5531,33.0548 77,33.5C 78.3756,33.3158 79.2089,32.6491 79.5,31.5 Z"/></g>
<g><path style="opacity:1" fill="#c1c0be" d="M 61.5,31.5 C 62.2485,32.531 62.9152,33.6976 63.5,35C 64.0944,35.4643 64.7611,35.631 65.5,35.5C 65.1344,36.6946 64.301,37.3613 63,37.5C 60.9435,36.8603 58.7768,37.0269 56.5,38C 58.3798,43.8043 60.3798,49.6376 62.5,55.5C 62.5,57.8333 62.5,60.1667 62.5,62.5C 58.5531,59.9759 56.0531,56.3092 55,51.5C 55.6187,46.3555 55.452,41.3555 54.5,36.5C 53.1585,30.9172 53.6585,30.5839 56,35.5C 56.6622,32.5834 58.4955,31.2501 61.5,31.5 Z"/></g>
<g><path style="opacity:1" fill="#bebdbb" d="M 40.5,43.5 C 38.5995,46.2946 36.9328,49.2946 35.5,52.5C 33.9089,55.6106 32.9089,58.9439 32.5,62.5C 31.5,62.5 30.5,62.5 29.5,62.5C 29.7947,60.2646 29.4614,58.2646 28.5,56.5C 31.0458,54.0752 32.5458,51.0752 33,47.5C 35.3333,45.8333 37.6667,44.1667 40,42.5C 40.3988,42.7284 40.5654,43.0618 40.5,43.5 Z"/></g>
<g><path style="opacity:1" fill="#bcbbb8" d="M 48.5,39.5 C 48.4653,44.3603 48.7986,49.3603 49.5,54.5C 48.7321,55.2625 48.2321,56.2625 48,57.5C 47.5003,65.1594 47.3336,72.8261 47.5,80.5C 46.4415,79.3998 45.6082,78.0664 45,76.5C 44.6258,70.9945 44.4591,65.6612 44.5,60.5C 43.914,60.7093 43.414,61.0426 43,61.5C 42.1944,67.0838 42.3611,72.5838 43.5,78C 42.9221,79.417 41.9221,80.2504 40.5,80.5C 40.6323,77.4299 40.299,74.4299 39.5,71.5C 39.414,65.6117 39.914,59.6117 41,53.5C 43.2077,50.4671 44.7077,47.1337 45.5,43.5C 45.0882,41.0274 46.0882,39.6941 48.5,39.5 Z"/></g>
<g><path style="opacity:1" fill="#76787a" d="M 54.5,36.5 C 55.452,41.3555 55.6187,46.3555 55,51.5C 56.0531,56.3092 58.5531,59.9759 62.5,62.5C 62.9617,64.7567 63.9617,66.7567 65.5,68.5C 64.7573,69.1818 64.0906,69.8485 63.5,70.5C 60.8508,68.86 58.1841,67.1933 55.5,65.5C 53.5283,61.8503 51.5283,58.1836 49.5,54.5C 48.7986,49.3603 48.4653,44.3603 48.5,39.5C 48.8417,38.6618 49.5084,38.3284 50.5,38.5C 51.9952,38.0113 53.3285,37.3446 54.5,36.5 Z"/></g>
<g><path style="opacity:1" fill="#bebdba" d="M 134.5,57.5 C 143.029,74.3628 156.029,86.3628 173.5,93.5C 173.5,97.5 173.5,101.5 173.5,105.5C 171.049,104.106 168.382,103.272 165.5,103C 160.357,99.6847 155.024,96.8513 149.5,94.5C 150.043,94.44 150.376,94.1067 150.5,93.5C 146.09,91.2579 142.09,88.4246 138.5,85C 144.174,87.3335 149.841,90.0002 155.5,93C 158.167,93.6667 160.833,93.6667 163.5,93C 163.957,92.586 164.291,92.086 164.5,91.5C 150.912,86.7446 140.078,78.4112 132,66.5C 131.536,67.0944 131.369,67.7611 131.5,68.5C 130.748,64.1292 129.581,59.7959 128,55.5C 127.667,55.1667 127.333,54.8333 127,54.5C 126.722,55.4158 126.222,56.0825 125.5,56.5C 125.773,54.549 125.107,53.049 123.5,52C 119.311,51.1881 115.311,51.3547 111.5,52.5C 110.167,50.5 110.167,48.5 111.5,46.5C 113.867,48.0723 115.867,47.739 117.5,45.5C 115.31,43.476 112.977,41.6427 110.5,40C 109.563,39.3083 108.897,39.475 108.5,40.5C 107.317,39.4955 105.984,38.6622 104.5,38C 105.448,37.5172 106.448,37.3505 107.5,37.5C 107.351,36.448 107.517,35.448 108,34.5C 111.631,37.042 115.464,39.2086 119.5,41C 124.458,46.7797 129.458,52.2797 134.5,57.5 Z"/></g>
<g><path style="opacity:1" fill="#2f3339" d="M 125.5,56.5 C 121.5,56.5 117.5,56.5 113.5,56.5C 112.292,55.7659 110.959,55.4326 109.5,55.5C 110.167,54.5 110.833,53.5 111.5,52.5C 115.311,51.3547 119.311,51.1881 123.5,52C 125.107,53.049 125.773,54.549 125.5,56.5 Z"/></g>
<g><path style="opacity:1" fill="#686a6e" d="M 75.5,50.5 C 76.7298,52.2972 77.3964,54.2972 77.5,56.5C 73.9266,58.7796 70.2599,58.7796 66.5,56.5C 65.9094,55.8485 65.2427,55.1818 64.5,54.5C 64.8333,54.1667 65.1667,53.8333 65.5,53.5C 68.208,55.4357 71.208,55.9357 74.5,55C 73.6721,54.0853 72.6721,53.4186 71.5,53C 73.133,52.5204 74.4664,51.6871 75.5,50.5 Z"/></g>
<g><path style="opacity:1" fill="#35393f" d="M 106.5,54.5 C 105.599,55.2905 104.932,56.2905 104.5,57.5C 99.7738,58.5526 94.9404,59.5526 90,60.5C 89.4293,56.3854 91.2626,53.8854 95.5,53C 97.3333,52.8333 99.1667,52.6667 101,52.5C 103.295,52.5465 105.129,53.2132 106.5,54.5 Z"/></g>
<g><path style="opacity:1" fill="#eeeae9" d="M 131.5,68.5 C 138.264,79.0671 147.598,86.5671 159.5,91C 157.833,91.6667 156.167,91.6667 154.5,91C 147.441,87.1399 140.441,83.3066 133.5,79.5C 130.703,78.5911 128.37,76.9244 126.5,74.5C 125.833,76.1667 125.167,77.8333 124.5,79.5C 123.365,80.1027 122.365,80.4361 121.5,80.5C 122.521,82.188 123.855,83.5213 125.5,84.5C 125.833,85.1667 126.167,85.8333 126.5,86.5C 127.216,92.3638 128.716,98.0304 131,103.5C 135.061,109.68 139.561,115.347 144.5,120.5C 150.52,128.185 157.187,135.185 164.5,141.5C 164.719,142.675 164.386,143.675 163.5,144.5C 162.618,143.24 161.618,142.074 160.5,141C 159.668,140.312 159.002,140.479 158.5,141.5C 160.909,143.902 162.909,146.569 164.5,149.5C 159.833,149.5 155.167,149.5 150.5,149.5C 150.5,149.167 150.5,148.833 150.5,148.5C 151.686,146.208 151.686,143.874 150.5,141.5C 148.828,138.663 149.494,137.996 152.5,139.5C 153.521,138.998 153.688,138.332 153,137.5C 150.667,136.167 148.333,134.833 146,133.5C 143.157,128.481 139.824,123.814 136,119.5C 133.392,114.056 130.559,108.722 127.5,103.5C 125.591,102.652 123.591,102.318 121.5,102.5C 121.827,100.512 122.16,98.5122 122.5,96.5C 122.545,92.6557 121.379,91.989 119,94.5C 118.586,94.0426 118.086,93.7093 117.5,93.5C 115.944,96.855 114.61,100.188 113.5,103.5C 111.495,104.254 110.828,105.421 111.5,107C 110.74,110.069 109.073,112.069 106.5,113C 103.802,108.227 102.802,103.061 103.5,97.5C 103.754,95.5992 103.42,94.9326 102.5,95.5C 100.833,95.5 99.1667,95.5 97.5,95.5C 97.5,91.5 97.5,87.5 97.5,83.5C 98.8333,83.5 100.167,83.5 101.5,83.5C 101.039,80.6967 99.7053,78.3634 97.5,76.5C 100.196,76.1202 103.196,75.7869 106.5,75.5C 105.651,80.5582 104.651,85.5582 103.5,90.5C 107.182,90.4093 110.349,89.076 113,86.5C 117.03,77.2295 120.53,67.8962 123.5,58.5C 119.878,58.678 116.544,58.0114 113.5,56.5C 117.5,56.5 121.5,56.5 125.5,56.5C 126.222,56.0825 126.722,55.4158 127,54.5C 127.333,54.8333 127.667,55.1667 128,55.5C 129.581,59.7959 130.748,64.1292 131.5,68.5 Z"/></g>
<g><path style="opacity:1" fill="#5b5d63" d="M 50.5,38.5 C 49.5084,38.3284 48.8417,38.6618 48.5,39.5C 46.0882,39.6941 45.0882,41.0274 45.5,43.5C 44.6236,43.6309 43.9569,43.2975 43.5,42.5C 44.5063,41.6043 44.5063,40.9377 43.5,40.5C 42.8589,41.9935 41.8589,42.9935 40.5,43.5C 40.5654,43.0618 40.3988,42.7284 40,42.5C 37.6667,44.1667 35.3333,45.8333 33,47.5C 32.5458,51.0752 31.0458,54.0752 28.5,56.5C 27.7106,57.915 27.0439,59.415 26.5,61C 26.7736,67.1531 27.107,73.3198 27.5,79.5C 27.2528,80.7133 26.5862,81.38 25.5,81.5C 24.448,81.6495 23.448,81.4828 22.5,81C 22.1076,78.1469 20.7743,75.9803 18.5,74.5C 18.5,73.8333 18.8333,73.5 19.5,73.5C 21.6307,63.2969 25.464,53.6303 31,44.5C 35.9989,42.2515 40.6655,38.9182 45,34.5C 47.1496,35.4825 48.9829,36.8158 50.5,38.5 Z"/></g>
<g><path style="opacity:1" fill="#ece8e7" d="M 85.5,40.5 C 83.6805,41.0627 82.3471,42.2294 81.5,44C 82.8823,47.311 84.5489,50.4777 86.5,53.5C 92.0484,50.6505 97.7151,48.3172 103.5,46.5C 104.222,46.0825 104.722,45.4158 105,44.5C 107.167,47.7868 107.667,51.1201 106.5,54.5C 105.129,53.2132 103.295,52.5465 101,52.5C 99.1667,52.6667 97.3333,52.8333 95.5,53C 91.2626,53.8854 89.4293,56.3854 90,60.5C 94.9404,59.5526 99.7738,58.5526 104.5,57.5C 105.833,57.1667 107.167,56.8333 108.5,56.5C 106.888,58.9631 107.388,60.9631 110,62.5C 111.125,67.5102 110.458,72.1769 108,76.5C 107.617,75.944 107.117,75.6107 106.5,75.5C 106.5,74.1667 106.5,72.8333 106.5,71.5C 104.473,71.6621 102.473,71.4955 100.5,71C 97.9278,68.7132 94.9278,67.5465 91.5,67.5C 91.5,69.1667 91.5,70.8333 91.5,72.5C 89.5,72.1667 87.5,71.8333 85.5,71.5C 83.1334,70.1292 81.4667,68.1292 80.5,65.5C 79.675,64.6143 78.675,64.281 77.5,64.5C 78.496,69.8204 79.496,75.1538 80.5,80.5C 80.2668,81.9317 79.6001,82.4317 78.5,82C 74.7186,75.7299 72.3853,68.8966 71.5,61.5C 70.1315,70.3079 68.1315,78.9745 65.5,87.5C 65.8868,89.2743 66.5535,90.941 67.5,92.5C 67.1667,92.8333 66.8333,93.1667 66.5,93.5C 62.635,91.9751 59.3017,89.6417 56.5,86.5C 55.7579,88.1082 55.5913,89.7749 56,91.5C 52.6739,88.1643 49.8406,84.4977 47.5,80.5C 47.3336,72.8261 47.5003,65.1594 48,57.5C 48.2321,56.2625 48.7321,55.2625 49.5,54.5C 51.5283,58.1836 53.5283,61.8503 55.5,65.5C 54.3065,65.9704 53.6399,66.9704 53.5,68.5C 54.4546,72.8524 56.4546,76.6857 59.5,80C 61.4727,80.4955 63.4727,80.6621 65.5,80.5C 65.9661,76.838 65.2994,73.5046 63.5,70.5C 64.0906,69.8485 64.7573,69.1818 65.5,68.5C 63.9617,66.7567 62.9617,64.7567 62.5,62.5C 62.5,60.1667 62.5,57.8333 62.5,55.5C 63.7046,57.1376 65.0379,57.4709 66.5,56.5C 70.2599,58.7796 73.9266,58.7796 77.5,56.5C 78.5862,56.38 79.2528,55.7133 79.5,54.5C 78.7064,51.5604 77.7064,48.5604 76.5,45.5C 79.028,44.1841 79.028,43.0174 76.5,42C 77.7932,41.51 79.1266,41.3433 80.5,41.5C 80.3505,40.448 80.5172,39.448 81,38.5C 82.1096,40.0368 83.6096,40.7035 85.5,40.5 Z"/></g>
<g><path style="opacity:1" fill="#969694" d="M 151.5,56.5 C 158.109,57.9695 164.775,59.1361 171.5,60C 169.377,61.1937 167.043,61.8603 164.5,62C 158.965,62.2377 153.632,62.4044 148.5,62.5C 147.347,61.6868 147.347,60.6868 148.5,59.5C 150.078,58.7022 151.744,58.2022 153.5,58C 152.584,57.7216 151.918,57.2216 151.5,56.5 Z"/></g>
<g><path style="opacity:1" fill="#858586" d="M 45.5,43.5 C 44.7077,47.1337 43.2077,50.4671 41,53.5C 39.914,59.6117 39.414,65.6117 39.5,71.5C 39.6567,70.1266 39.49,68.7932 39,67.5C 38.6667,70.8333 38.3333,74.1667 38,77.5C 37.6667,77.1667 37.3333,76.8333 37,76.5C 35.6758,68.3248 35.1758,60.3248 35.5,52.5C 36.9328,49.2946 38.5995,46.2946 40.5,43.5C 41.8589,42.9935 42.8589,41.9935 43.5,40.5C 44.5063,40.9377 44.5063,41.6043 43.5,42.5C 43.9569,43.2975 44.6236,43.6309 45.5,43.5 Z"/></g>
<g><path style="opacity:0.69" fill="#cfcccb" d="M 17.5,58.5 C 17.573,60.0269 16.9063,61.0269 15.5,61.5C 15.427,59.9731 16.0937,58.9731 17.5,58.5 Z"/></g>
<g><path style="opacity:1" fill="#ece9e8" d="M 28.5,56.5 C 29.4614,58.2646 29.7947,60.2646 29.5,62.5C 30.5,62.5 31.5,62.5 32.5,62.5C 33.2448,65.3896 33.9115,68.3896 34.5,71.5C 33.0331,70.7084 31.6998,70.7084 30.5,71.5C 31.2861,76.7813 31.7861,82.1146 32,87.5C 32.2438,97.0505 35.4104,105.717 41.5,113.5C 39.8914,113.389 38.2247,113.722 36.5,114.5C 32.4844,104.111 28.4844,93.7778 24.5,83.5C 24.8627,82.8165 25.1961,82.1499 25.5,81.5C 26.5862,81.38 27.2528,80.7133 27.5,79.5C 27.107,73.3198 26.7736,67.1531 26.5,61C 27.0439,59.415 27.7106,57.915 28.5,56.5 Z"/></g>
<g><path style="opacity:1" fill="#bebcb9" d="M 109.5,55.5 C 110.959,55.4326 112.292,55.7659 113.5,56.5C 116.544,58.0114 119.878,58.678 123.5,58.5C 120.53,67.8962 117.03,77.2295 113,86.5C 110.349,89.076 107.182,90.4093 103.5,90.5C 104.651,85.5582 105.651,80.5582 106.5,75.5C 107.117,75.6107 107.617,75.944 108,76.5C 110.458,72.1769 111.125,67.5102 110,62.5C 107.388,60.9631 106.888,58.9631 108.5,56.5C 108.5,55.8333 108.833,55.5 109.5,55.5 Z"/></g>
<g><path style="opacity:0.98" fill="#8a8787" d="M 15.5,61.5 C 15.3304,64.204 13.9971,65.8707 11.5,66.5C 12.604,64.6115 13.9373,62.9448 15.5,61.5 Z"/></g>
<g><path style="opacity:1" fill="#a7a6a4" d="M 57.5,29.5 C 57.369,28.7611 57.5357,28.0944 58,27.5C 58.3418,29.6192 59.1751,29.9526 60.5,28.5C 60.8333,28.5 61.1667,28.5 61.5,28.5C 60.1667,29.5 60.1667,30.5 61.5,31.5C 58.4955,31.2501 56.6622,32.5834 56,35.5C 53.6585,30.5839 53.1585,30.9172 54.5,36.5C 53.3285,37.3446 51.9952,38.0113 50.5,38.5C 48.9829,36.8158 47.1496,35.4825 45,34.5C 40.6655,38.9182 35.9989,42.2515 31,44.5C 25.464,53.6303 21.6307,63.2969 19.5,73.5C 19.6602,71.8008 19.4935,70.1341 19,68.5C 14.9399,71.3068 10.4399,72.4735 5.5,72C 6.52656,71.4867 7.52656,70.9867 8.5,70.5C 14.251,67.3903 18.4176,62.7237 21,56.5C 21.3333,56.8333 21.6667,57.1667 22,57.5C 24.3178,52.8644 26.6511,48.1978 29,43.5C 32.4167,40.5389 36.25,38.2056 40.5,36.5C 41.8333,34.8333 41.8333,33.1667 40.5,31.5C 38.4835,30.8257 36.8168,29.6591 35.5,28C 39.4364,29.5253 43.6031,30.6919 48,31.5C 48.5,31.1667 49,30.8333 49.5,30.5C 48.8075,29.4822 48.1408,28.4822 47.5,27.5C 48.1515,26.9094 48.8182,26.2427 49.5,25.5C 50.6477,27.1487 51.981,28.6487 53.5,30C 55.0657,30.765 56.3991,30.5983 57.5,29.5 Z"/></g>
<g><path style="opacity:1" fill="#b6b4af" d="M 106.5,75.5 C 103.196,75.7869 100.196,76.1202 97.5,76.5C 96.1943,75.0322 94.6943,73.6988 93,72.5C 92.8333,72.8333 92.6667,73.1667 92.5,73.5C 94.9528,76.2413 97.2861,79.0746 99.5,82C 96.9832,82.2566 94.6498,81.5899 92.5,80C 89.9546,77.293 87.6213,74.4597 85.5,71.5C 87.5,71.8333 89.5,72.1667 91.5,72.5C 91.5,70.8333 91.5,69.1667 91.5,67.5C 94.9278,67.5465 97.9278,68.7132 100.5,71C 102.473,71.4955 104.473,71.6621 106.5,71.5C 106.5,72.8333 106.5,74.1667 106.5,75.5 Z"/></g>
<g><path style="opacity:1" fill="#bdbbb9" d="M 133.5,79.5 C 132.761,79.369 132.094,79.5357 131.5,80C 134.5,83.6667 137.833,87 141.5,90C 135.573,89.7979 130.407,87.6312 126,83.5C 125.601,83.7284 125.435,84.0618 125.5,84.5C 123.855,83.5213 122.521,82.188 121.5,80.5C 122.365,80.4361 123.365,80.1027 124.5,79.5C 125.167,77.8333 125.833,76.1667 126.5,74.5C 128.37,76.9244 130.703,78.5911 133.5,79.5 Z"/></g>
<g><path style="opacity:1" fill="#65666a" d="M 35.5,52.5 C 35.1758,60.3248 35.6758,68.3248 37,76.5C 37.3333,76.8333 37.6667,77.1667 38,77.5C 38.3333,74.1667 38.6667,70.8333 39,67.5C 39.49,68.7932 39.6567,70.1266 39.5,71.5C 40.299,74.4299 40.6323,77.4299 40.5,80.5C 40.6332,83.925 39.9665,84.2583 38.5,81.5C 35.083,79.1087 33.7497,75.7754 34.5,71.5C 33.9115,68.3896 33.2448,65.3896 32.5,62.5C 32.9089,58.9439 33.9089,55.6106 35.5,52.5 Z"/></g>
<g><path style="opacity:1" fill="#b5b3af" d="M 126.5,86.5 C 127.885,87.5736 129.051,88.9069 130,90.5C 134.66,100.638 139.494,110.638 144.5,120.5C 139.561,115.347 135.061,109.68 131,103.5C 128.716,98.0304 127.216,92.3638 126.5,86.5 Z"/></g>
<g><path style="opacity:1" fill="#1d1d1d" d="M 149.5,94.5 C 146.198,93.7063 142.865,93.0396 139.5,92.5C 130.524,87.4309 129.191,89.0976 135.5,97.5C 136.742,101.655 138.742,105.322 141.5,108.5C 141.992,110.819 142.992,112.819 144.5,114.5C 145.356,119.213 147.523,123.213 151,126.5C 158.371,133.375 165.871,140.041 173.5,146.5C 173.5,147.167 173.5,147.833 173.5,148.5C 170.319,146.408 167.319,144.075 164.5,141.5C 157.187,135.185 150.52,128.185 144.5,120.5C 139.494,110.638 134.66,100.638 130,90.5C 129.051,88.9069 127.885,87.5736 126.5,86.5C 126.167,85.8333 125.833,85.1667 125.5,84.5C 125.435,84.0618 125.601,83.7284 126,83.5C 130.407,87.6312 135.573,89.7979 141.5,90C 137.833,87 134.5,83.6667 131.5,80C 132.094,79.5357 132.761,79.369 133.5,79.5C 140.441,83.3066 147.441,87.1399 154.5,91C 156.167,91.6667 157.833,91.6667 159.5,91C 147.598,86.5671 138.264,79.0671 131.5,68.5C 131.369,67.7611 131.536,67.0944 132,66.5C 140.078,78.4112 150.912,86.7446 164.5,91.5C 164.291,92.086 163.957,92.586 163.5,93C 160.833,93.6667 158.167,93.6667 155.5,93C 149.841,90.0002 144.174,87.3335 138.5,85C 142.09,88.4246 146.09,91.2579 150.5,93.5C 150.376,94.1067 150.043,94.44 149.5,94.5 Z"/></g>
<g><path style="opacity:1" fill="#bebcb9" d="M 18.5,74.5 C 20.7743,75.9803 22.1076,78.1469 22.5,81C 23.448,81.4828 24.448,81.6495 25.5,81.5C 25.1961,82.1499 24.8627,82.8165 24.5,83.5C 28.4844,93.7778 32.4844,104.111 36.5,114.5C 35.8761,114.917 35.5427,115.584 35.5,116.5C 36.1776,118.516 36.8443,120.516 37.5,122.5C 34.8644,119.69 32.3644,116.69 30,113.5C 29.9438,120.205 30.2771,126.871 31,133.5C 26.9872,127.121 24.9872,120.121 25,112.5C 19.2402,106.986 17.0735,100.652 18.5,93.5C 13.8603,96.3255 8.8603,97.8255 3.5,98C 7.92875,95.8977 12.0954,93.3977 16,90.5C 16.512,85.0957 17.3454,79.7624 18.5,74.5 Z"/></g>
<g><path style="opacity:1" fill="#c0bebc" d="M 34.5,71.5 C 33.7497,75.7754 35.083,79.1087 38.5,81.5C 40.0575,87.6457 41.0575,93.979 41.5,100.5C 41.4712,102.029 40.8045,103.196 39.5,104C 42.8758,108.582 45.8758,113.415 48.5,118.5C 47.3073,120.384 45.6406,120.884 43.5,120C 40.7339,118.629 38.4006,116.796 36.5,114.5C 38.2247,113.722 39.8914,113.389 41.5,113.5C 35.4104,105.717 32.2438,97.0505 32,87.5C 31.7861,82.1146 31.2861,76.7813 30.5,71.5C 31.6998,70.7084 33.0331,70.7084 34.5,71.5 Z"/></g>
<g><path style="opacity:1" fill="#c4c3c0" d="M 139.5,92.5 C 150.147,99.8295 161.481,106.163 173.5,111.5C 173.5,113.833 173.5,116.167 173.5,118.5C 169.654,118.455 165.987,117.622 162.5,116C 153.388,110.043 144.555,103.543 136,96.5C 135.601,96.7284 135.435,97.0618 135.5,97.5C 129.191,89.0976 130.524,87.4309 139.5,92.5 Z"/></g>
<g><path style="opacity:1" fill="#9c9c9a" d="M 121.5,102.5 C 120.833,102.5 120.5,102.833 120.5,103.5C 120.167,104.167 119.833,104.833 119.5,105.5C 117.824,106.183 117.157,107.517 117.5,109.5C 115.81,109.856 114.81,110.856 114.5,112.5C 113.325,112.719 112.325,112.386 111.5,111.5C 112.785,108.979 113.452,106.313 113.5,103.5C 114.61,100.188 115.944,96.855 117.5,93.5C 118.086,93.7093 118.586,94.0426 119,94.5C 121.379,91.989 122.545,92.6557 122.5,96.5C 122.16,98.5122 121.827,100.512 121.5,102.5 Z"/></g>
<g><path style="opacity:1" fill="#efebea" d="M 139.5,92.5 C 142.865,93.0396 146.198,93.7063 149.5,94.5C 155.024,96.8513 160.357,99.6847 165.5,103C 168.382,103.272 171.049,104.106 173.5,105.5C 173.5,107.5 173.5,109.5 173.5,111.5C 161.481,106.163 150.147,99.8295 139.5,92.5 Z"/></g>
<g><path style="opacity:1" fill="#ece8e7" d="M 120.5,103.5 C 125.918,109.99 130.085,117.323 133,125.5C 133.833,126.333 134.667,127.167 135.5,128C 135.272,128.399 134.938,128.565 134.5,128.5C 131.733,128.13 129.733,126.796 128.5,124.5C 124.694,118.554 121.694,112.221 119.5,105.5C 119.833,104.833 120.167,104.167 120.5,103.5 Z"/></g>
<g><path style="opacity:1" fill="#1d1d1c" d="M 47.5,80.5 C 49.8406,84.4977 52.6739,88.1643 56,91.5C 55.5913,89.7749 55.7579,88.1082 56.5,86.5C 59.3017,89.6417 62.635,91.9751 66.5,93.5C 66.8333,93.1667 67.1667,92.8333 67.5,92.5C 66.5535,90.941 65.8868,89.2743 65.5,87.5C 68.1315,78.9745 70.1315,70.3079 71.5,61.5C 72.3853,68.8966 74.7186,75.7299 78.5,82C 79.6001,82.4317 80.2668,81.9317 80.5,80.5C 79.496,75.1538 78.496,69.8204 77.5,64.5C 78.675,64.281 79.675,64.6143 80.5,65.5C 81.4667,68.1292 83.1334,70.1292 85.5,71.5C 87.6213,74.4597 89.9546,77.293 92.5,80C 94.6498,81.5899 96.9832,82.2566 99.5,82C 97.2861,79.0746 94.9528,76.2413 92.5,73.5C 92.6667,73.1667 92.8333,72.8333 93,72.5C 94.6943,73.6988 96.1943,75.0322 97.5,76.5C 99.7053,78.3634 101.039,80.6967 101.5,83.5C 100.167,83.5 98.8333,83.5 97.5,83.5C 97.5,87.5 97.5,91.5 97.5,95.5C 96.456,99.0858 95.6227,102.752 95,106.5C 98.8573,103.801 101.357,100.134 102.5,95.5C 103.42,94.9326 103.754,95.5992 103.5,97.5C 102.57,100.636 100.903,103.469 98.5,106C 99.6787,108.796 99.6787,111.629 98.5,114.5C 98.2688,117.4 97.9355,120.4 97.5,123.5C 98.138,129.331 96.138,133.665 91.5,136.5C 89.1184,137.351 87.1184,138.684 85.5,140.5C 83.1838,141.806 80.8505,143.139 78.5,144.5C 69.5481,141.026 61.2147,136.526 53.5,131C 50.8741,128.015 49.3741,124.515 49,120.5C 45.5602,122.994 42.2268,122.66 39,119.5C 38.7003,121.066 39.2003,122.399 40.5,123.5C 39.1054,124.815 38.1054,124.481 37.5,122.5C 36.8443,120.516 36.1776,118.516 35.5,116.5C 35.5427,115.584 35.8761,114.917 36.5,114.5C 38.4006,116.796 40.7339,118.629 43.5,120C 45.6406,120.884 47.3073,120.384 48.5,118.5C 45.8758,113.415 42.8758,108.582 39.5,104C 40.8045,103.196 41.4712,102.029 41.5,100.5C 41.0575,93.979 40.0575,87.6457 38.5,81.5C 39.9665,84.2583 40.6332,83.925 40.5,80.5C 41.9221,80.2504 42.9221,79.417 43.5,78C 42.3611,72.5838 42.1944,67.0838 43,61.5C 43.414,61.0426 43.914,60.7093 44.5,60.5C 44.4591,65.6612 44.6258,70.9945 45,76.5C 45.6082,78.0664 46.4415,79.3998 47.5,80.5 Z"/></g>
<g><path style="opacity:1" fill="#948847" d="M 51.5,105.5 C 51.5,105.833 51.5,106.167 51.5,106.5C 49.7868,105.365 49.1201,103.698 49.5,101.5C 50.552,101.351 51.552,101.517 52.5,102C 51.6634,103.011 51.33,104.178 51.5,105.5 Z"/></g>
<g><path style="opacity:1" fill="#ddd6d6" d="M 45.5,102.5 C 47.5743,104.762 49.5743,107.262 51.5,110C 46.0538,110.278 44.0538,107.778 45.5,102.5 Z"/></g>
<g><path style="opacity:1" fill="#d5cece" d="M 45.5,98.5 C 47.5273,98.3379 49.5273,98.5045 51.5,99C 48.9999,99.3747 46.6666,100.208 44.5,101.5C 44.1667,101.167 43.8333,100.833 43.5,100.5C 44.2427,99.8182 44.9094,99.1515 45.5,98.5 Z"/></g>
<g><path style="opacity:1" fill="#adaba6" d="M 97.5,95.5 C 99.1667,95.5 100.833,95.5 102.5,95.5C 101.357,100.134 98.8573,103.801 95,106.5C 95.6227,102.752 96.456,99.0858 97.5,95.5 Z"/></g>
<g><path style="opacity:1" fill="#bab6b1" d="M 93.5,89.5 C 92.3799,93.5615 89.7132,95.3948 85.5,95C 84.7476,94.3292 84.4142,93.4959 84.5,92.5C 85.5,92.5 86.5,92.5 87.5,92.5C 88.5,91.8333 89.5,91.1667 90.5,90.5C 91.391,89.8902 92.391,89.5569 93.5,89.5 Z"/></g>
<g><path style="opacity:1" fill="#201e17" d="M 90.5,90.5 C 89.5,91.1667 88.5,91.8333 87.5,92.5C 84.7314,90.3373 84.8981,88.3373 88,86.5C 89.4813,87.4709 90.3146,88.8042 90.5,90.5 Z"/></g>
<g><path style="opacity:1" fill="#878383" d="M 42.5,85.5 C 42.1984,88.0593 42.5318,90.3926 43.5,92.5C 43.44,93.0431 43.1067,93.3764 42.5,93.5C 41.1997,90.6908 41.1997,88.0241 42.5,85.5 Z"/></g>
<g><path style="opacity:1" fill="#9e914e" d="M 93.5,89.5 C 92.391,89.5569 91.391,89.8902 90.5,90.5C 90.3146,88.8042 89.4813,87.4709 88,86.5C 84.8981,88.3373 84.7314,90.3373 87.5,92.5C 86.5,92.5 85.5,92.5 84.5,92.5C 83.2661,90.3398 81.9328,88.1731 80.5,86C 84.4285,84.6752 88.4285,84.3418 92.5,85C 93.3802,86.3561 93.7135,87.8561 93.5,89.5 Z"/></g>
<g><path style="opacity:1" fill="#ede5e5" d="M 74.5,80.5 C 75.4778,80.811 76.1445,81.4777 76.5,82.5C 74.3761,84.1207 72.3761,85.954 70.5,88C 74.5393,85.8202 78.8727,83.8202 83.5,82C 87.5369,81.3933 91.5369,81.56 95.5,82.5C 95.6495,83.552 95.4828,84.552 95,85.5C 93.3783,83.4535 91.2116,82.4535 88.5,82.5C 81.3305,83.0824 75.6638,86.249 71.5,92C 74.1808,90.8868 76.8474,89.3868 79.5,87.5C 80.3035,90.4404 81.6369,93.1071 83.5,95.5C 81.2372,96.65 78.9038,97.65 76.5,98.5C 82.0917,99.1727 87.4251,98.006 92.5,95C 93.7014,94.0975 94.5348,92.9308 95,91.5C 95.1879,98.4147 93.3545,104.748 89.5,110.5C 90.365,111.583 91.365,111.749 92.5,111C 93.6853,109.647 95.0186,108.48 96.5,107.5C 97.6891,110.298 97.3558,112.964 95.5,115.5C 96.5216,121.252 96.0216,126.918 94,132.5C 88.6564,135.849 83.3231,139.182 78,142.5C 71.6155,139.788 65.4488,136.622 59.5,133C 56.7047,131.207 54.2047,129.04 52,126.5C 51.7862,121.691 50.2862,117.357 47.5,113.5C 49.686,112.779 51.8526,112.113 54,111.5C 54.414,111.957 54.914,112.291 55.5,112.5C 57.2229,107.132 56.2229,102.299 52.5,98C 49.2397,97.2165 46.0731,97.3832 43,98.5C 42.51,97.2068 42.3433,95.8734 42.5,94.5C 45.8119,93.5155 49.1452,92.5155 52.5,91.5C 54.8838,93.8847 57.5505,95.8847 60.5,97.5C 60.8333,97.1667 61.1667,96.8333 61.5,96.5C 60.2526,94.5029 59.4192,92.5029 59,90.5C 61.7546,94.3003 65.2546,95.967 69.5,95.5C 68.4076,92.5467 67.9076,89.5467 68,86.5C 70.3958,84.6627 72.5625,82.6627 74.5,80.5 Z"/></g>
<g><path style="opacity:1" fill="#ece5e5" d="M 43.5,92.5 C 42.5318,90.3926 42.1984,88.0593 42.5,85.5C 42.3832,83.5165 43.0499,81.8498 44.5,80.5C 47.0638,83.2802 49.3971,86.2802 51.5,89.5C 48.8172,90.5103 46.1505,91.5103 43.5,92.5 Z"/></g>
<g><path style="opacity:1" fill="#eae3e3" d="M 83.5,76.5 C 86.0217,76.1281 88.0217,76.9614 89.5,79C 87.444,79.3108 85.444,79.8108 83.5,80.5C 81.0659,78.8534 81.0659,77.5201 83.5,76.5 Z"/></g>
<g><path style="opacity:1" fill="#d4cdcd" d="M 71.5,72.5 C 72.1993,74.556 73.1993,76.556 74.5,78.5C 72.5171,79.982 70.6837,81.6487 69,83.5C 69.6542,79.8758 70.4876,76.2092 71.5,72.5 Z"/></g>
<g><path style="opacity:1" fill="#e6dfdf" d="M 80.5,70.5 C 82.1454,71.4787 83.4787,72.812 84.5,74.5C 81.0797,75.7527 79.7464,74.4193 80.5,70.5 Z"/></g>
<g><path style="opacity:1" fill="#c1bfbb" d="M 55.5,65.5 C 58.1841,67.1933 60.8508,68.86 63.5,70.5C 65.2994,73.5046 65.9661,76.838 65.5,80.5C 63.4727,80.6621 61.4727,80.4955 59.5,80C 56.4546,76.6857 54.4546,72.8524 53.5,68.5C 53.6399,66.9704 54.3065,65.9704 55.5,65.5 Z"/></g>
<g><path style="opacity:1" fill="#a7a3a0" d="M 51.5,105.5 C 53.9352,106.13 54.6018,107.463 53.5,109.5C 52.5748,108.643 51.9081,107.643 51.5,106.5C 51.5,106.167 51.5,105.833 51.5,105.5 Z"/></g>
<g><path style="opacity:1" fill="#ece9e8" d="M 173.5,118.5 C 173.5,120.167 173.5,121.833 173.5,123.5C 172.089,122.092 170.423,121.092 168.5,120.5C 166.688,120.952 165.688,122.118 165.5,124C 167.369,127.37 170.036,129.87 173.5,131.5C 173.5,136.5 173.5,141.5 173.5,146.5C 165.871,140.041 158.371,133.375 151,126.5C 147.523,123.213 145.356,119.213 144.5,114.5C 151.078,122.582 158.244,130.249 166,137.5C 166.667,136.167 167.333,136.167 168,137.5C 168.667,136.167 168.667,134.833 168,133.5C 162.53,126.691 157.03,119.858 151.5,113C 148.688,111.023 146.022,108.856 143.5,106.5C 142.818,107.243 142.151,107.909 141.5,108.5C 138.742,105.322 136.742,101.655 135.5,97.5C 135.435,97.0618 135.601,96.7284 136,96.5C 144.555,103.543 153.388,110.043 162.5,116C 165.987,117.622 169.654,118.455 173.5,118.5 Z"/></g>
<g><path style="opacity:1" fill="#e6e3e2" d="M 117.5,109.5 C 118.376,109.369 119.043,109.702 119.5,110.5C 121.121,115.037 123.121,119.371 125.5,123.5C 125.167,123.833 124.833,124.167 124.5,124.5C 122.021,122.924 119.354,121.924 116.5,121.5C 116.631,120.761 116.464,120.094 116,119.5C 115.346,120.696 114.846,120.696 114.5,119.5C 115.447,117.941 116.113,116.274 116.5,114.5C 116.253,113.287 115.586,112.62 114.5,112.5C 114.81,110.856 115.81,109.856 117.5,109.5 Z"/></g>
<g><path style="opacity:1" fill="#bab8b4" d="M 103.5,97.5 C 102.802,103.061 103.802,108.227 106.5,113C 109.073,112.069 110.74,110.069 111.5,107C 110.828,105.421 111.495,104.254 113.5,103.5C 113.452,106.313 112.785,108.979 111.5,111.5C 112.325,112.386 113.325,112.719 114.5,112.5C 115.586,112.62 116.253,113.287 116.5,114.5C 116.113,116.274 115.447,117.941 114.5,119.5C 114.846,120.696 115.346,120.696 116,119.5C 116.464,120.094 116.631,120.761 116.5,121.5C 114.146,121.162 111.813,120.662 109.5,120C 106.01,117.588 102.343,115.755 98.5,114.5C 99.6787,111.629 99.6787,108.796 98.5,106C 100.903,103.469 102.57,100.636 103.5,97.5 Z"/></g>
<g><path style="opacity:0.813" fill="#141414" d="M 19.5,73.5 C 18.8333,73.5 18.5,73.8333 18.5,74.5C 17.3454,79.7624 16.512,85.0957 16,90.5C 12.0954,93.3977 7.92875,95.8977 3.5,98C 8.8603,97.8255 13.8603,96.3255 18.5,93.5C 17.0735,100.652 19.2402,106.986 25,112.5C 24.9872,120.121 26.9872,127.121 31,133.5C 30.2771,126.871 29.9438,120.205 30,113.5C 32.3644,116.69 34.8644,119.69 37.5,122.5C 38.1054,124.481 39.1054,124.815 40.5,123.5C 42.14,126.149 43.8067,128.816 45.5,131.5C 45.3333,131.833 45.1667,132.167 45,132.5C 43.6667,131.167 42.3333,129.833 41,128.5C 41.108,134.812 41.2746,141.145 41.5,147.5C 57.1909,147.247 72.8576,147.58 88.5,148.5C 88.6061,145.385 87.6061,142.719 85.5,140.5C 86.8221,140.33 87.9887,140.663 89,141.5C 89.436,144.398 90.6026,146.731 92.5,148.5C 93.1667,148.5 93.5,148.833 93.5,149.5C 75.1667,149.5 56.8333,149.5 38.5,149.5C 40.0387,141.375 39.5387,133.375 37,125.5C 35.6667,124.167 34.3333,122.833 33,121.5C 32.8333,122.667 32.6667,123.833 32.5,125C 38.1562,145.191 35.9895,146.358 26,128.5C 24.413,123.232 23.0797,117.899 22,112.5C 18.2063,108.632 16.0396,103.965 15.5,98.5C 15.1667,98.1667 14.8333,97.8333 14.5,97.5C 9.64356,99.9748 4.64356,100.641 -0.5,99.5C -0.5,99.1667 -0.5,98.8333 -0.5,98.5C 4.47806,96.0094 9.14473,93.0094 13.5,89.5C 14.3333,84.5 15.1667,79.5 16,74.5C 16.5,74 17,73.5 17.5,73C 11.6651,74.2316 5.6651,74.7316 -0.5,74.5C -0.5,73.8333 -0.5,73.1667 -0.5,72.5C 1.95354,70.9402 4.62021,69.9402 7.5,69.5C 8.16667,69.5 8.5,69.8333 8.5,70.5C 7.52656,70.9867 6.52656,71.4867 5.5,72C 10.4399,72.4735 14.9399,71.3068 19,68.5C 19.4935,70.1341 19.6602,71.8008 19.5,73.5 Z"/></g>
<g><path style="opacity:1" fill="#1e1d1d" d="M 61.5,112.5 C 62.404,113.209 62.7373,114.209 62.5,115.5C 63.675,115.281 64.675,115.614 65.5,116.5C 61.1403,118.14 59.8069,116.807 61.5,112.5 Z"/></g>
<g><path style="opacity:1" fill="#1a1919" d="M 83.5,115.5 C 85.3442,116.204 85.8442,117.537 85,119.5C 80.5868,126.292 74.4201,129.125 66.5,128C 65.572,127.612 64.9054,126.945 64.5,126C 70.8673,122.485 77.2006,118.985 83.5,115.5 Z"/></g>
<g><path style="opacity:1" fill="#aaa9a6" d="M 144.5,114.5 C 142.992,112.819 141.992,110.819 141.5,108.5C 142.151,107.909 142.818,107.243 143.5,106.5C 146.022,108.856 148.688,111.023 151.5,113C 157.03,119.858 162.53,126.691 168,133.5C 168.667,134.833 168.667,136.167 168,137.5C 167.333,136.167 166.667,136.167 166,137.5C 158.244,130.249 151.078,122.582 144.5,114.5 Z"/></g>
<g><path style="opacity:1" fill="#292c32" d="M 119.5,105.5 C 121.694,112.221 124.694,118.554 128.5,124.5C 127.527,124.987 126.527,125.487 125.5,126C 129.184,129.338 133.518,131.338 138.5,132C 141.631,136.133 145.131,139.966 149,143.5C 149.765,145.066 149.598,146.399 148.5,147.5C 144.671,145.836 140.671,144.669 136.5,144C 133.567,141.736 131.4,138.902 130,135.5C 125.667,136.167 121.333,136.833 117,137.5C 116.923,141.857 118.089,145.857 120.5,149.5C 119.167,149.5 117.833,149.5 116.5,149.5C 115.313,144.085 113.813,138.752 112,133.5C 107.906,128.986 103.072,125.653 97.5,123.5C 97.9355,120.4 98.2688,117.4 98.5,114.5C 102.343,115.755 106.01,117.588 109.5,120C 111.813,120.662 114.146,121.162 116.5,121.5C 119.354,121.924 122.021,122.924 124.5,124.5C 124.833,124.167 125.167,123.833 125.5,123.5C 123.121,119.371 121.121,115.037 119.5,110.5C 119.043,109.702 118.376,109.369 117.5,109.5C 117.157,107.517 117.824,106.183 119.5,105.5 Z"/></g>
<g><path style="opacity:1" fill="#aeaca8" d="M 85.5,140.5 C 87.6061,142.719 88.6061,145.385 88.5,148.5C 72.8576,147.58 57.1909,147.247 41.5,147.5C 41.2746,141.145 41.108,134.812 41,128.5C 42.3333,129.833 43.6667,131.167 45,132.5C 45.1667,132.167 45.3333,131.833 45.5,131.5C 43.8067,128.816 42.14,126.149 40.5,123.5C 39.2003,122.399 38.7003,121.066 39,119.5C 42.2268,122.66 45.5602,122.994 49,120.5C 49.3741,124.515 50.8741,128.015 53.5,131C 61.2147,136.526 69.5481,141.026 78.5,144.5C 80.8505,143.139 83.1838,141.806 85.5,140.5 Z"/></g>
<g><path style="opacity:1" fill="#c5adad" d="M 79.5,119.5 C 81.6456,119.696 81.8122,120.696 80,122.5C 76.7675,125.751 72.9342,126.918 68.5,126C 72.5274,124.324 76.1941,122.158 79.5,119.5 Z"/></g>
<g><path style="opacity:1" fill="#b8b7b5" d="M 173.5,123.5 C 173.5,126.167 173.5,128.833 173.5,131.5C 170.036,129.87 167.369,127.37 165.5,124C 165.688,122.118 166.688,120.952 168.5,120.5C 170.423,121.092 172.089,122.092 173.5,123.5 Z"/></g>
<g><path style="opacity:1" fill="#333b3a" d="M 97.5,123.5 C 103.072,125.653 107.906,128.986 112,133.5C 113.813,138.752 115.313,144.085 116.5,149.5C 108.833,149.5 101.167,149.5 93.5,149.5C 93.5,148.833 93.1667,148.5 92.5,148.5C 93.8024,144.372 93.4691,140.372 91.5,136.5C 96.138,133.665 98.138,129.331 97.5,123.5 Z"/></g>
<g><path style="opacity:1" fill="#bdbcba" d="M 120.5,103.5 C 120.5,102.833 120.833,102.5 121.5,102.5C 123.591,102.318 125.591,102.652 127.5,103.5C 130.559,108.722 133.392,114.056 136,119.5C 139.824,123.814 143.157,128.481 146,133.5C 148.333,134.833 150.667,136.167 153,137.5C 153.688,138.332 153.521,138.998 152.5,139.5C 149.494,137.996 148.828,138.663 150.5,141.5C 146.668,138.501 143.335,135.001 140.5,131C 138.389,130.155 136.389,129.322 134.5,128.5C 134.938,128.565 135.272,128.399 135.5,128C 134.667,127.167 133.833,126.333 133,125.5C 130.085,117.323 125.918,109.99 120.5,103.5 Z"/></g>
<g><path style="opacity:1" fill="#151516" d="M 128.5,124.5 C 129.733,126.796 131.733,128.13 134.5,128.5C 136.389,129.322 138.389,130.155 140.5,131C 143.335,135.001 146.668,138.501 150.5,141.5C 151.686,143.874 151.686,146.208 150.5,148.5C 149.508,148.672 148.842,148.338 148.5,147.5C 149.598,146.399 149.765,145.066 149,143.5C 145.131,139.966 141.631,136.133 138.5,132C 133.518,131.338 129.184,129.338 125.5,126C 126.527,125.487 127.527,124.987 128.5,124.5 Z"/></g>
<g><path style="opacity:1" fill="#353c3c" d="M 148.5,147.5 C 148.842,148.338 149.508,148.672 150.5,148.5C 150.5,148.833 150.5,149.167 150.5,149.5C 140.5,149.5 130.5,149.5 120.5,149.5C 118.089,145.857 116.923,141.857 117,137.5C 121.333,136.833 125.667,136.167 130,135.5C 131.4,138.902 133.567,141.736 136.5,144C 140.671,144.669 144.671,145.836 148.5,147.5 Z"/></g>
<g><path style="opacity:1" fill="#a59393" d="M 91.5,136.5 C 93.4691,140.372 93.8024,144.372 92.5,148.5C 90.6026,146.731 89.436,144.398 89,141.5C 87.9887,140.663 86.8221,140.33 85.5,140.5C 87.1184,138.684 89.1184,137.351 91.5,136.5 Z"/></g>
<g><path style="opacity:1" fill="#c4c3c1" d="M 164.5,141.5 C 167.319,144.075 170.319,146.408 173.5,148.5C 173.5,148.833 173.5,149.167 173.5,149.5C 170.5,149.5 167.5,149.5 164.5,149.5C 162.909,146.569 160.909,143.902 158.5,141.5C 159.002,140.479 159.668,140.312 160.5,141C 161.618,142.074 162.618,143.24 163.5,144.5C 164.386,143.675 164.719,142.675 164.5,141.5 Z"/></g>
</svg>
