<svg width="48" height="16" viewBox="0 0 48 16" fill="none" xmlns="http://www.w3.org/2000/svg">
<path d="M34.89 1.24604C34.116 0.954044 32.91 0.644043 31.41 0.644043C27.57 0.644043 24.86 2.58004 24.84 5.35404C24.816 7.39404 26.768 8.54204 28.242 9.22604C29.756 9.92604 30.262 10.366 30.258 10.996C30.248 11.95 29.048 12.382 27.934 12.382C26.402 12.382 25.562 12.168 24.272 11.632L23.794 11.41L23.252 14.606C24.184 14.996 25.864 15.33 27.602 15.356C31.684 15.356 34.352 13.434 34.384 10.478C34.416 8.85204 33.364 7.61804 31.142 6.60204C29.794 5.94204 28.954 5.50004 28.954 4.83004C28.954 4.23804 29.672 3.60604 31.172 3.60604C32.462 3.58604 33.364 3.86404 34.082 4.15204L34.442 4.31404L34.984 1.22604L34.89 1.24604V1.24604ZM44.856 0.906044H41.856C40.922 0.906044 40.224 1.16004 39.814 2.08804L34.044 15.156H38.126L38.942 13.016L43.922 13.02C44.044 13.52 44.402 15.156 44.402 15.156H48L44.856 0.906044ZM19.32 0.786043H23.206L20.776 15.044H16.888L19.32 0.782043V0.786043ZM9.442 8.64404L9.846 10.624L13.648 0.906044H17.766L11.644 15.136H7.536L4.176 3.08404C4.106 2.87804 4.02 2.73804 3.816 2.61004C2.68 2.01604 1.41 1.53204 0 1.19604L0.05 0.896044H6.312C7.16 0.928044 7.844 1.19604 8.078 2.10404L9.442 8.65004V8.64404V8.64404ZM40.058 10.098L41.608 6.11004C41.588 6.15004 41.928 5.28604 42.124 4.75004L42.39 5.98004L43.288 10.094H40.058V10.098V10.098Z" fill="url(#paint0_linear_2_7)"/>
<defs>
<linearGradient id="paint0_linear_2_7" x1="44.5" y1="1.00006" x2="4" y2="15.0001" gradientUnits="userSpaceOnUse">
<stop stop-color="#254AA5"/>
<stop offset="1" stop-color="#222357"/>
</linearGradient>
</defs>
</svg>
